<svg xmlns="http://www.w3.org/2000/svg" viewBox="0 0 512 512"><defs><filter id="a" width="200%" height="200%" x="-20%" y="-20%"><feOffset in="SourceGraphic" result="offOut"/><feGaussianBlur in="matrixOut" result="blurOut" stdDeviation="10"/><feBlend in="SourceGraphic" in2="blurOut"/></filter></defs><path fill="#0E1631" d="M0 0h512v512H0z"/><path fill="none" stroke="#19aadd" stroke-width="6" d="M59.43 351.5a218.57 218.57 0 00393.14 0m0-191a218.57 218.57 0 00-393.14 0" filter="url(#a)"/><path fill="none" stroke="#dd6aa1" stroke-width="6" d="M426.82 160.5a195 195 0 00-340.64 0m.56 191a195 195 0 00339.52 0" filter="url(#a)"/><path fill="none" stroke="#d82986" stroke-width="5" d="M93 257c-11.24-12.23 7.26-26.73 15.5-6.5 5.56-1.13 10.07-3.57 13-8-1.85-11-7.23-14.91-13-18-8.21-3.3-17.27-2.13-25.06 1.76A24.07 24.07 0 0070.5 245.5c-.86 8.41 4.31 18.24 12 21.89 6.45 3.07 13.47 4.52 20.31 6.41 6.31 1.74 12.59 3.7 16.79 9.06 4.81 6.14 5.88 14.62 3.91 22-4.33 16.36-25 24.78-39.84 16.68-8.75-4.79-13.78-13.35-15.16-23.07 3.93-2.85 8.76-4.66 14-6 9.25 28.86 34.65 4.06 16.5-6.5M197 245a14.84 14.84 0 00-4.79-.17 5.09 5.09 0 00-3.81 2.64c-.76 1.66-.38 3.79-.38 5.57v71.61h18V223H188v10m90 83.09c-6.34-15.89-9.36-32.66-7.83-49.75a135.81 135.81 0 014.59-25 30.56 30.56 0 0112.31-16.92c5-3.32 10.59-5.07 16.59-4.28a27.05 27.05 0 0116.34 8.31c7.45 8 10.46 20.23 10.07 30.95a.78.78 0 01-.12.5.86.86 0 01-.52.26 61 61 0 01-19.07 1.89.51.51 0 01-.24-.07.42.42 0 01-.11-.31c-.25-3-.58-5.91-1.11-8.83-.68-3.78-1.74-11.86-6.46-12.89a4.35 4.35 0 00-2.39.26c-5.4 2-6.78 7.13-7.61 12.47a152.55 152.55 0 00-1.74 26.75c.18 8.33.1 16.61.42 24.92a39.79 39.79 0 001.41 10 18.09 18.09 0 005.25 8.53c3.82 3.27 8.85 3.62 13.48 2.05a21.24 21.24 0 009.69-6.78c6.16-7.68 7.13-18.58 9-27.88a.32.32 0 000-.27.26.26 0 00-.19-.09A125.82 125.82 0 00310 288a81.76 81.76 0 01-1.87 12.73 24.48 24.48 0 01-1.37 4.49c-.35.8-.89 1.66-1.75 1.83M394 270v-47.72h49.61L444 239h-30v24h22v17h-11.43c-6.37 0-12.93-.44-19.27.05a18.25 18.25 0 00-6.14 1.45 9 9 0 00-4 3.25c-1.61 2.58-1.19 5.77-1.19 8.67V324h50v-17h-31v-14" filter="url(#a)"/><path fill="none" stroke="#dc4788" stroke-width="5" d="M180.1 186.32l48.07 8.47 31.37-37.39-16.69-45.87-48.07-8.47-31.37 37.39zm31.38-37.4l16.69 45.87zm0 0l-48.07-8.47zm0 0l31.37-37.39" filter="url(#a)"/><path fill="none" stroke="#7b5b9a" stroke-width="4" d="M286.74 193.23l39.14-9 11.74-38.42-27.39-29.41-39.14 9-11.74 38.42zm11.75-38.42l27.39 29.38zm0 0l-39.14 9zm0 0l11.74-38.41" filter="url(#a)"/><circle cx="233.81" cy="163.78" r="4" fill="#fff"/><circle cx="242.69" cy="153.72" r="4" fill="#fff"/><circle cx="228.81" cy="151.78" r="4" fill="#fff"/><circle cx="237.69" cy="141.72" r="4" fill="#fff"/><circle cx="283" cy="145" r="3.5" fill="#fff"/><circle cx="273.22" cy="147.08" r="3.5" fill="#fff"/><circle cx="292.78" cy="142.92" r="3.5" fill="#fff"/><circle cx="286" cy="135" r="3.5" fill="#fff"/><circle cx="276.22" cy="137.08" r="3.5" fill="#fff"/><circle cx="295.78" cy="132.92" r="3.5" fill="#fff"/><circle cx="295" cy="168" r="3.5" fill="#fff"/><circle cx="291" cy="180" r="3.5" fill="#fff"/><circle cx="301" cy="177" r="3.5" fill="#fff"/><circle cx="284" cy="171.5" r="3.5" fill="#fff"/><circle cx="325" cy="149" r="3.5" fill="#fff"/><circle cx="314" cy="152" r="3.5" fill="#fff"/><circle cx="195.5" cy="168.5" r="4" fill="#fff"/><circle cx="203.5" cy="125.17" r="4" fill="#fff"/><circle cx="190.34" cy="129.96" r="4" fill="#fff"/><circle cx="216.66" cy="120.38" r="4" fill="#fff"/></svg>